<svg width="38" height="38" viewBox="0 0 38 38" fill="none" xmlns="http://www.w3.org/2000/svg">
<path d="M0 19C0 8.50659 8.50659 0 19 0C29.4934 0 38 8.50659 38 19C38 29.4934 29.4934 38 19 38C8.50659 38 0 29.4934 0 19Z" fill="#F97316"/>
<path d="M20.7858 11.7165C20.8499 11.4172 20.7046 11.1122 20.4318 10.9734C20.1589 10.8346 19.8269 10.8968 19.6228 11.125L11.9728 19.675C11.7952 19.8734 11.7509 20.1575 11.8596 20.4006C11.9682 20.6436 12.2096 20.8001 12.4758 20.8001H18.3908L17.2158 26.2836C17.1516 26.5829 17.2969 26.8879 17.5698 27.0267C17.8426 27.1655 18.1747 27.1033 18.3788 26.8751L26.0288 18.3251C26.2063 18.1268 26.2507 17.8426 26.142 17.5995C26.0333 17.3565 25.792 17.2001 25.5258 17.2001H19.6108L20.7858 11.7165Z" fill="white"/>
</svg>
