<svg width="38" height="38" viewBox="0 0 38 38" fill="none" xmlns="http://www.w3.org/2000/svg">
<path d="M0 19C0 8.50659 8.50659 0 19 0C29.4934 0 38 8.50659 38 19C38 29.4934 29.4934 38 19 38C8.50659 38 0 29.4934 0 19Z" fill="#0D9488"/>
<path d="M18.3258 21.925C18.3258 22.2978 18.628 22.6 19.0008 22.6C19.3736 22.6 19.6758 22.2978 19.6758 21.925L19.6758 14.1728L22.335 16.9885C22.591 17.2595 23.0182 17.2718 23.2893 17.0158C23.5603 16.7598 23.5725 16.3326 23.3165 16.0616L19.4915 12.0116C19.364 11.8766 19.1865 11.8 19.0008 11.8C18.8151 11.8 18.6376 11.8766 18.51 12.0116L14.685 16.0616C14.4291 16.3326 14.4413 16.7598 14.7123 17.0158C14.9833 17.2717 15.4105 17.2595 15.6665 16.9885L18.3258 14.1728L18.3258 21.925Z" fill="white"/>
<path d="M13.1508 21.475C13.1508 21.1023 12.8486 20.8 12.4758 20.8C12.103 20.8 11.8008 21.1023 11.8008 21.475V23.725C11.8008 25.092 12.9089 26.2 14.2758 26.2H23.7258C25.0927 26.2 26.2008 25.092 26.2008 23.725V21.475C26.2008 21.1023 25.8986 20.8 25.5258 20.8C25.153 20.8 24.8508 21.1023 24.8508 21.475V23.725C24.8508 24.3464 24.3471 24.85 23.7258 24.85H14.2758C13.6545 24.85 13.1508 24.3464 13.1508 23.725V21.475Z" fill="white"/>
</svg>
