<svg width="38" height="38" viewBox="0 0 38 38" fill="none" xmlns="http://www.w3.org/2000/svg">
<path d="M0 19C0 8.50659 8.50659 0 19 0C29.4934 0 38 8.50659 38 19C38 29.4934 29.4934 38 19 38C8.50659 38 0 29.4934 0 19Z" fill="#EF4444"/>
<path fill-rule="evenodd" clip-rule="evenodd" d="M19.0008 26.2C22.9772 26.2 26.2008 22.9765 26.2008 19C26.2008 15.0236 22.9772 11.8 19.0008 11.8C15.0243 11.8 11.8008 15.0236 11.8008 19C11.8008 22.9765 15.0243 26.2 19.0008 26.2ZM16.0758 18.325C15.703 18.325 15.4008 18.6273 15.4008 19C15.4008 19.3728 15.703 19.675 16.0758 19.675H21.9258C22.2986 19.675 22.6008 19.3728 22.6008 19C22.6008 18.6273 22.2986 18.325 21.9258 18.325H16.0758Z" fill="white"/>
</svg>
