<svg width="38" height="38" viewBox="0 0 38 38" fill="none" xmlns="http://www.w3.org/2000/svg">
<path d="M0 19C0 8.50659 8.50659 0 19 0C29.4934 0 38 8.50659 38 19C38 29.4934 29.4934 38 19 38C8.50659 38 0 29.4934 0 19Z" fill="#2563EB"/>
<path d="M12.9254 13.6C11.807 13.6 10.9004 14.5066 10.9004 15.625V22.375C10.9004 23.4934 11.807 24.4 12.9254 24.4H19.6754C20.7938 24.4 21.7004 23.4934 21.7004 22.375V15.625C21.7004 14.5066 20.7938 13.6 19.6754 13.6H12.9254Z" fill="white"/>
<path d="M27.1004 14.275C27.1004 14.002 26.9359 13.7559 26.6837 13.6514C26.4315 13.5469 26.1411 13.6046 25.9481 13.7977L23.2481 16.4977C23.1215 16.6243 23.0504 16.796 23.0504 16.975V21.025C23.0504 21.204 23.1215 21.3757 23.2481 21.5023L25.9481 24.2023C26.1411 24.3953 26.4315 24.4531 26.6837 24.3486C26.9359 24.2441 27.1004 23.998 27.1004 23.725V14.275Z" fill="white"/>
</svg>
