<svg width="40" height="40" viewBox="0 0 40 40" fill="none" xmlns="http://www.w3.org/2000/svg">
<path fill-rule="evenodd" clip-rule="evenodd" d="M39.2008 20C39.2008 30.6039 30.6046 39.2 20.0008 39.2C9.39692 39.2 0.800781 30.6039 0.800781 20C0.800781 9.39612 9.39692 0.799988 20.0008 0.799988C30.6046 0.799988 39.2008 9.39612 39.2008 20ZM20.0008 7.99999C20.9949 7.99999 21.8008 8.80588 21.8008 9.79999V20.6C21.8008 21.5941 20.9949 22.4 20.0008 22.4C19.0067 22.4 18.2008 21.5941 18.2008 20.6V9.79999C18.2008 8.80588 19.0067 7.99999 20.0008 7.99999ZM20.0008 32C21.3263 32 22.4008 30.9255 22.4008 29.6C22.4008 28.2745 21.3263 27.2 20.0008 27.2C18.6753 27.2 17.6008 28.2745 17.6008 29.6C17.6008 30.9255 18.6753 32 20.0008 32Z" fill="#F97316"/>
</svg>
